/* XPM */
static char * xwpe_w_xpm[] = {
"48 48 33 1",
" 	c None",
".	c #C3C8D6",
"+	c #D1D9E4",
"@	c #DEE7EE",
"#	c #ADADB1",
"$	c #E7F4F4",
"%	c #9C99A7",
"&	c #B6B8C9",
"*	c #564C54",
"=	c #565655",
"-	c #7E7888",
";	c #030205",
">	c #645864",
",	c #8F8996",
"'	c #776882",
")	c #2B1C41",
"!	c #506978",
"~	c #437D8B",
"{	c #4A3876",
"]	c #484A83",
"^	c #7C69E8",
"/	c #8A7CE3",
"(	c #6148ED",
"_	c #6B57E3",
":	c #290C44",
"<	c #9D95E4",
"[	c #4623F9",
"}	c #4636B6",
"|	c #5537DE",
"1	c #401DE2",
"2	c #462699",
"3	c #2E223C",
"4	c #9085DC",
".+++@@@+#$$@%##############################%@&..",
"%%@@++$++@@+&*============================-@$.%;",
"#*#+.+++@$$@$.============================&++#*;",
"#=-+.+.&+@+@$@>=========================*,++#'=;",
"#=='.&#%.@@@@..);;;;;;#==;;;;;;;;;;;;;;;'&.&'==;",
"#===>&-',.$@&&+.!~~~~~#==;~~~~~~~~~~~~~%.+.,===;",
"#===)%-%#-,,#+$+-~~~~~#==;~~~~~~~~~~~~!+.+%#===;",
"#===;!%&&#,%@@@.%!~~~~#==;~~~##~~~~~~!.@+.!#===;",
"#===;~!....%.@++#%=~~~#==;~~##~~~~~~!.$$@!~#===;",
"#===;~!,#&&.&%,..-,!~~#==;~~##~~~~~~+$$@!~~#===;",
"#===;~~,'&++++%,-,&-!~#==;~~#~~~~~~!..@%!~~#===;",
"#===;~~~!>%.+&%%-'+.'~#==;~~~~~~~~!+@.&!~~~#===;",
"#===;~~~~'-#+++&,'-&+!#==;~~~~~~~!$$$&!~~~~#===;",
"#===;~~~~!--...&#&--.#%==;~~~~~~~.$$+!~~~~~#===;",
"#===;~~~~~!,,.%#.+.%#&,*=;~~~~~~'.@@#!~~~~~#===;",
"#*==;~~~~~~,&%&&#%##&,,>=;~~~~~-#&&#~~~~~~~#===;",
"-{{{;~~~~!]]^/%&&-((_^#^{:]]]]]_^<-!~!]]]]]'{{{:",
">[[[:~~~~}[[[/.#+%[[[_#([[[[[[[[[|=~~][[[[[[[[[1",
"=[[[:~~~=[[[[^+++/[[[-/|[[}}|([[[1]~~{[[[}}(2223",
">[[[:~~~}[[[[]!+&([[|#/[[[_!%@([[[]~!1[[]~~#===;",
"-[[[:~~]1[[[[]~!/[[[<.^[[[>'.$_[[[]~![[[]~~#===;",
",[[[:~~{[[[[[]~!([[(&._[[1!&%.([[1]~][[[]~~#===;",
",[[['#,1[[1[['#,1[|<@&|[[(#.%%[[[|%#}[[|>'''{{=;",
",[[[{=2[[{1[[{=2[[(++<[[[_&../[[[2==1[[[[[[[[2=;",
",[[[{*[[[*1[[{*[[[4@.^[[[|^/([[[1*={[[[111111{=;",
",[[[:)[[:;1[[:)[[1.+@|[[[[[[[[[[:;;:[[[::::'{==;",
",[[[)}[1!!1[[]}[[/$$+[[[[[[[[[[^!~~}[[[~~~~#===;",
"'[[[[[[]~!1[[1[[(++@4[[[_4##&&-'!~~}[[1~~~~#===;",
"-[[[[[2!#,1[[[[[4@.-}[[[4.+..&#''!][[[{~~~~#===;",
",[[[[[}##!1[[[[|#&'!}[[[%.+#%,--'%_[[[!~~~~#===;",
",[[[[[~##!1[[[[_%#-!}[[|%##>-%#,#*}[[[1111111==;",
",[[[[{~#~!1[[[[#.,~][[[{%%%>>%&&%-}[[[[[[[[[[==;",
",1[[1!~~~~{[[[_+-~~]1[[{*,,-#++..#([[[[[[[[[{==;",
"#===;~~~~~~!$$$%~~~~~~#=*%+,.@@.&+++,!~~~~~#===;",
"#===;~~~~~!&$@+!~~~~~~#==:&&#++&.++@@%!~~~~#===;",
"#===;~~~~!&+.&'~~~~~~~#==;!%#+++++@@@&#~~~~#===;",
"#===;~~~~,.@+!~~~~~~~~#*=;~,@@@@$+++++@!~~~#===;",
"#===;~~~!.@$&!~~~~~~~~#==;~!%++@+&&...@#!~~#===;",
"#===;~~!&@@+!~~~~~~~~~#==;~~!%&+@+.+++@+&!~#===;",
"#===;~!++$.!~~~~~~~~~~#==;~~~=@$$+@@$$$@@!~#===;",
"#===;~,.@+!~~~~~~~~~~~#==;~~~~,$$$$+.+$@+.!#===;",
"#===;-..+#!~~~~~~~~~~~#==;~~~~~,$@@.+++@+&&,===;",
"#===>&,',~~~~~~~~~~~~~#==;~~~~~!.@.&+@+&...,===;",
"#===+#-'%##############==#######%$+.@@++.+.,>==;",
"#==%&#,>=========================>@+$$$+..#%%>=;",
"#*#@++>==========================*%+$$$$@++&&%*;",
"%%@+@-=============================&$$$$@@@&&#,;",
"-$+.>;;;;;;;;;;;;;;;;;;;;;;;;;;;;;;;.+$@....+,&,"};
