$NetBSD: patch-bitmaps_dleft.xbm,v 1.1 2018/02/18 23:50:36 he Exp $

--- bitmaps/dleft.xbm.orig	2009-01-18 13:18:18.000000000 +0000
+++ bitmaps/dleft.xbm
@@ -1,6 +1,6 @@
 #define dleft_width 16
 #define dleft_height 16
-static char dleft_bits[] = {
+static unsigned char dleft_bits[] = {
    0x00, 0x00, 0x80, 0x61, 0xc0, 0x71, 0xe0, 0x79, 0xf0, 0x7d, 0xf8, 0x7f,
    0xfc, 0x7f, 0xfe, 0x7f, 0xfe, 0x7f, 0xfc, 0x7f, 0xf8, 0x7f, 0xf0, 0x7d,
    0xe0, 0x79, 0xc0, 0x71, 0x80, 0x61, 0x00, 0x00};
